<svg viewBox="0 0 180 51"><g fill="none" fill-rule="evenodd"><path fill="#3DAB53" d="M24.882 34.679c-5.031.034-9.132-3.278-9.408-9.455-.276-5.763 4.756-9.628 9.546-9.731 5.514-.138 8.822 6.211 8.822 6.211l14.233-5.28S42.216 1.139 26.364 1.139C11.545 1.138 1.31 11.49 1.31 25.535c0 12.491 9.65 24.948 24.71 24.396 16.541-.621 22.193-15.287 22.193-15.287L33.6 29.78c.034-.07-2.964 4.9-8.719 4.9"/><path stroke="#006838" stroke-width="1.723" d="M24.882 34.679c-5.031.034-9.132-3.278-9.408-9.455-.276-5.763 4.756-9.628 9.546-9.731 5.514-.138 8.822 6.211 8.822 6.211l14.233-5.28S42.216 1.139 26.364 1.139C11.545 1.138 1.31 11.49 1.31 25.535c0 12.491 9.65 24.948 24.71 24.396 16.541-.621 22.193-15.287 22.193-15.287L33.6 29.78c.034-.07-2.964 4.9-8.719 4.9"/><path fill="#000" d="M55.484 41.373c0-1.139.448-1.967 1.31-2.484.724-.449 1.62-.69 2.688-.69 1.172 0 2.137.276 2.86.828.759.552 1.103 1.31 1.103 2.277 0 .794-.172 1.38-.482 1.829-.345.449-.793.794-1.448 1.035-.62.242-1.31.38-2.067.38-1.207 0-2.172-.276-2.895-.828-.69-.518-1.069-1.312-1.069-2.348zm1.482 0c0 .794.242 1.346.724 1.76.482.38 1.068.587 1.792.587s1.31-.207 1.792-.587c.483-.38.724-.966.724-1.76 0-.759-.241-1.311-.724-1.69-.482-.38-1.068-.587-1.792-.587s-1.31.207-1.792.586c-.482.345-.724.932-.724 1.691zm7.616 1.242l1.413-.172c.07.414.31.724.655.932.38.207.862.31 1.55.31.656 0 1.173-.103 1.483-.276.31-.207.482-.414.482-.69 0-.242-.138-.414-.413-.552-.207-.104-.69-.207-1.482-.345-1.069-.207-1.792-.345-2.206-.483-.413-.138-.723-.345-.93-.587a1.237 1.237 0 01-.31-.828c0-.276.103-.518.275-.76.173-.24.414-.413.724-.586.241-.103.517-.207.93-.31a6.82 6.82 0 011.241-.139c.655 0 1.24.07 1.758.208.517.138.861.31 1.102.552.242.241.414.552.483.931l-1.413.138a1.054 1.054 0 00-.551-.724c-.31-.173-.759-.276-1.31-.276-.655 0-1.137.069-1.413.241-.276.173-.413.345-.413.552 0 .138.068.242.172.345.103.104.31.207.551.276.138.035.586.138 1.275.276 1.034.208 1.723.346 2.137.484.414.138.724.31.965.552.241.241.345.517.345.862s-.138.656-.414.967c-.276.31-.69.552-1.206.69-.517.172-1.137.241-1.792.241-1.103 0-1.965-.172-2.516-.483-.655-.207-1-.69-1.172-1.346zm14.371-.414l1.413.138c-.172.69-.551 1.243-1.206 1.622-.655.38-1.413.587-2.344.587-1.171 0-2.102-.276-2.826-.828-.723-.553-1.068-1.312-1.068-2.347 0-.656.138-1.242.448-1.725.31-.483.758-.863 1.379-1.104.62-.242 1.31-.38 2.033-.38.93 0 1.689.173 2.274.483.586.345.965.794 1.138 1.415l-1.413.138a1.656 1.656 0 00-.724-.932c-.345-.207-.758-.31-1.24-.31-.724 0-1.31.172-1.758.552-.448.38-.69.966-.69 1.76 0 .828.207 1.414.655 1.76.448.379 1 .552 1.723.552.552 0 1.034-.138 1.413-.38.448-.104.69-.483.793-1zm2.654 2.209v-8.385h1.447v3.002c.69-.552 1.516-.829 2.55-.829.62 0 1.172.104 1.654.277.483.172.793.414 1 .724.206.31.31.76.31 1.346v3.83H87.12v-3.83c0-.518-.172-.897-.482-1.139-.31-.241-.758-.345-1.344-.345a2.9 2.9 0 00-1.206.242c-.38.172-.655.38-.793.655-.172.276-.241.656-.241 1.105v3.312l-1.447.035zm9.132-7.178v-1.173h1.447v1.173H90.74zm0 7.178v-6.073h1.447v6.073H90.74zm3.653 0v-6.073h1.31v.862c.62-.655 1.516-1 2.722-1 .517 0 1 .068 1.413.207.413.138.758.31.965.517.207.207.379.483.448.76.069.206.069.517.069 1v3.727H99.87v-3.693c0-.414-.069-.724-.172-.931-.103-.207-.31-.38-.586-.483-.276-.138-.62-.173-1-.173-.62 0-1.136.138-1.584.414-.448.276-.655.794-.655 1.588v3.312h-1.482v-.034zm14.68-.725c-.55.31-1.033.552-1.55.69a5.868 5.868 0 01-1.585.207c-.93 0-1.655-.172-2.171-.483-.517-.31-.759-.724-.759-1.242 0-.31.104-.552.276-.828.207-.242.448-.449.758-.587a4.55 4.55 0 011.034-.345c.276-.069.724-.103 1.275-.138 1.172-.103 2.033-.207 2.585-.345v-.276c0-.414-.138-.725-.414-.897-.379-.242-.93-.345-1.654-.345-.69 0-1.172.069-1.516.241-.31.173-.552.483-.724.897l-1.413-.138c.138-.414.345-.793.62-1.035.31-.276.724-.483 1.276-.621.55-.138 1.206-.207 1.93-.207.723 0 1.309.069 1.757.173.448.138.793.276 1 .448.206.173.378.414.447.69a5 5 0 01.07.932v1.38c0 .966.034 1.553.103 1.83.069.24.172.482.379.724h-1.517a9.956 9.956 0 01-.206-.725zm-.103-2.312c-.517.138-1.31.276-2.343.38-.586.069-1 .138-1.275.207-.241.069-.448.172-.586.345a.682.682 0 00-.207.483c0 .276.138.518.448.69.276.173.724.276 1.275.276.552 0 1.034-.103 1.482-.276.448-.172.758-.414.965-.725.172-.241.241-.586.241-1.035v-.345zm4.101 3.037v-1.173h1.654v1.173zm4.17 0v-6.073h1.31v.862c.62-.655 1.516-1 2.722-1 .517 0 1 .068 1.413.207.414.138.758.31.965.517a1.7 1.7 0 01.448.76c.069.206.069.517.069 1v3.727h-1.447v-3.693c0-.414-.07-.724-.173-.931-.103-.207-.31-.38-.586-.483-.275-.138-.62-.173-.999-.173-.62 0-1.137.138-1.585.414-.448.276-.655.794-.655 1.588v3.312h-1.482v-.034zm14.957-1.933l1.481.138c-.24.622-.654 1.105-1.31 1.45-.62.345-1.447.517-2.446.517-1.24 0-2.24-.276-2.964-.828-.723-.552-1.102-1.311-1.102-2.312 0-1.035.379-1.829 1.102-2.38.724-.553 1.689-.864 2.86-.864 1.138 0 2.068.277 2.792.829.724.552 1.068 1.345 1.068 2.346v.276h-6.34c.068.656.31 1.173.792 1.518.483.346 1.068.518 1.792.518.517 0 .965-.103 1.344-.31.414-.173.724-.484.93-.898zm-4.722-1.655h4.756c-.069-.518-.241-.897-.551-1.139-.448-.38-1.069-.586-1.792-.586a3.03 3.03 0 00-1.689.483c-.448.276-.69.69-.724 1.242zm11.2 2.692l.207.897a6.562 6.562 0 01-1.103.103c-.517 0-.93-.069-1.206-.172a1.448 1.448 0 01-.62-.449c-.103-.207-.172-.586-.172-1.208v-3.486h-1.069v-.793h1.069v-1.519l1.447-.62v2.104h1.447v.794h-1.447v3.554c0 .31.034.483.069.552.034.069.138.138.241.207.104.035.276.07.483.07.172 0 .379-.035.654-.035z"/><path fill="#006838" d="M54.588 9.592c0-1.07.276-1.863.862-2.38.482-.415 1.034-.656 1.723-.656.758 0 1.378.276 1.86.793.483.518.724 1.243.724 2.14 0 .724-.103 1.311-.31 1.76a2.358 2.358 0 01-.93 1 2.567 2.567 0 01-1.31.345c-.758 0-1.378-.241-1.86-.759-.518-.552-.759-1.277-.759-2.243zm.965 0c0 .725.138 1.277.448 1.657.31.38.69.552 1.172.552.448 0 .827-.173 1.137-.552.31-.38.448-.932.448-1.691 0-.725-.138-1.243-.448-1.622-.31-.38-.69-.552-1.137-.552-.448 0-.862.172-1.172.552-.31.345-.448.897-.448 1.656z"/><path fill="#A7A9AC" d="M60.826 14.665V6.694h.861v.759c.207-.276.414-.518.69-.656.24-.138.55-.207.896-.207.482 0 .896.138 1.24.38.345.241.62.62.793 1.07.172.448.276.966.276 1.518 0 .586-.104 1.104-.31 1.587-.207.483-.483.828-.862 1.07-.38.241-.793.38-1.206.38-.31 0-.586-.07-.827-.208a2.258 2.258 0 01-.62-.517v2.795h-.932zm.827-5.038c0 .724.138 1.276.413 1.656.276.345.62.518 1.034.518.414 0 .758-.173 1.069-.553.31-.38.448-.931.448-1.69 0-.725-.138-1.277-.414-1.657-.276-.38-.62-.552-1.034-.552-.379 0-.758.207-1.034.587-.344.38-.482.931-.482 1.69zm8.788.966l.965.138a2.665 2.665 0 01-.828 1.38c-.413.31-.93.483-1.55.483-.793 0-1.448-.276-1.896-.793-.482-.518-.689-1.243-.689-2.174 0-.967.241-1.726.724-2.243.482-.553 1.102-.794 1.86-.794.724 0 1.345.276 1.793.794.448.517.689 1.276.689 2.208v.276h-4.067c.035.621.207 1.104.517 1.45.31.345.69.517 1.138.517.344 0 .62-.103.861-.276.138-.242.345-.552.483-.966zM67.374 9.04h3.067c-.035-.483-.173-.863-.345-1.104-.31-.38-.69-.552-1.137-.552-.414 0-.793.138-1.069.448-.31.276-.482.69-.516 1.208zm5.169 3.416V6.694h.827v.827c.413-.621 1-.966 1.757-.966.345 0 .62.069.896.172.276.138.483.276.62.483.139.207.242.449.276.725.035.172.035.483.035.966v3.554h-.93v-3.52c0-.414-.035-.69-.104-.897-.069-.207-.207-.345-.379-.483a1.318 1.318 0 00-.655-.172c-.379 0-.723.138-1.034.38-.275.275-.413.758-.413 1.518v3.14h-.896v.034z"/><path fill="#006838" d="M80.986 10.731l.93-.138c.035.38.207.69.414.897.241.207.551.31 1 .31.413 0 .758-.103.964-.275a.802.802 0 00.31-.656c0-.207-.103-.38-.275-.518-.138-.103-.448-.207-.965-.345-.69-.172-1.137-.345-1.413-.483a1.303 1.303 0 01-.586-.552 1.48 1.48 0 01-.207-.759c0-.242.07-.483.173-.725a1.74 1.74 0 01.448-.552c.137-.103.344-.207.585-.276a2.94 2.94 0 01.793-.103c.414 0 .793.069 1.137.207.31.138.552.31.724.517.138.207.276.518.31.897l-.896.138a1.103 1.103 0 00-.344-.69c-.207-.172-.483-.241-.828-.241-.413 0-.723.069-.896.207-.172.138-.275.31-.275.517 0 .138.034.242.103.346a.939.939 0 00.345.276c.103.034.379.103.827.241.655.173 1.103.345 1.378.449.276.103.448.276.62.517.138.207.207.518.207.828 0 .311-.103.622-.275.932a1.67 1.67 0 01-.793.656c-.345.172-.724.241-1.172.241-.723 0-1.24-.172-1.62-.483-.378-.31-.62-.759-.723-1.38z"/><path fill="#A7A9AC" d="M86.292 9.592c0-1.07.276-1.863.862-2.38.482-.416 1.034-.657 1.723-.657.758 0 1.378.276 1.86.793.483.518.725 1.242.725 2.14 0 .724-.104 1.31-.31 1.76a2.36 2.36 0 01-.931 1 2.567 2.567 0 01-1.31.345c-.758 0-1.378-.241-1.86-.759-.518-.551-.76-1.276-.76-2.242zm.965 0c0 .725.138 1.277.448 1.656.31.38.69.553 1.172.553.448 0 .827-.173 1.137-.553.31-.38.448-.931.448-1.69 0-.725-.138-1.243-.448-1.622-.31-.38-.689-.552-1.137-.552-.448 0-.862.172-1.172.552-.31.345-.448.897-.448 1.656zm8.857 2.864v-.862c-.414.655-1 .966-1.723.966-.31 0-.62-.07-.896-.207a1.85 1.85 0 01-.62-.483 1.675 1.675 0 01-.276-.725 5.23 5.23 0 01-.07-.897V6.694h.931v3.209c0 .517.035.862.07 1.035.068.241.172.448.378.621.173.138.414.207.69.207.275 0 .551-.069.792-.241.241-.173.414-.346.517-.622.104-.241.138-.62.138-1.138V6.694h.93v5.762h-.861zm2.24 0V6.694h.827v.862c.207-.414.414-.69.586-.793a.935.935 0 01.586-.207c.31 0 .62.103.965.31l-.31.897c-.242-.138-.448-.207-.69-.207a.844.844 0 00-.551.207 1.06 1.06 0 00-.345.518c-.103.345-.138.725-.138 1.139v3.001h-.93v.034zm7.1-2.105l.895.138c-.103.656-.345 1.174-.758 1.553-.414.38-.93.552-1.516.552-.759 0-1.344-.241-1.792-.759-.448-.518-.69-1.242-.69-2.208 0-.621.104-1.174.31-1.622.207-.483.483-.828.897-1.035a2.481 2.481 0 011.31-.345c.585 0 1.067.172 1.446.483.38.31.62.759.724 1.345l-.896.138c-.069-.38-.241-.69-.448-.862-.207-.207-.482-.276-.792-.276-.483 0-.862.172-1.138.517-.275.345-.448.897-.448 1.657 0 .759.138 1.345.414 1.69.276.346.655.518 1.103.518.379 0 .654-.103.896-.345.275-.276.448-.656.482-1.139zm5.479.242l.964.138a2.665 2.665 0 01-.827 1.38c-.413.31-.93.483-1.55.483-.793 0-1.448-.276-1.896-.793-.482-.518-.689-1.243-.689-2.174 0-.967.241-1.726.724-2.243.482-.552 1.102-.794 1.86-.794.724 0 1.345.276 1.793.794.448.517.689 1.276.689 2.208v.276h-4.17c.034.621.207 1.104.517 1.45.31.345.69.517 1.137.517.345 0 .62-.103.862-.276.24-.242.448-.552.586-.966zm-3.068-1.553h3.068c-.035-.483-.173-.863-.345-1.104-.31-.38-.69-.552-1.137-.552-.414 0-.793.138-1.069.448-.31.276-.482.69-.517 1.208z"/><path fill="#006838" d="M119.548 10.35l.896.139c-.103.655-.344 1.173-.758 1.553-.413.38-.93.552-1.516.552-.758 0-1.344-.242-1.792-.76-.448-.517-.69-1.242-.69-2.208 0-.621.104-1.173.31-1.622.208-.483.483-.828.897-1.035a2.481 2.481 0 011.31-.345c.585 0 1.068.172 1.447.483.379.31.62.76.724 1.346l-.897.138c-.068-.38-.24-.69-.448-.863-.206-.207-.482-.276-.792-.276-.483 0-.862.173-1.137.518-.276.345-.448.897-.448 1.656 0 .76.137 1.346.413 1.69.276.346.655.519 1.103.519.379 0 .655-.104.896-.346.276-.276.413-.655.482-1.138zm1.725 2.107V4.519h.93v2.864c.448-.518.965-.794 1.654-.794.414 0 .758.07 1.068.242.31.173.517.414.655.69.138.31.207.725.207 1.277v3.658h-.93V8.798c0-.483-.104-.828-.31-1.07a1.164 1.164 0 00-.862-.345c-.276 0-.517.07-.793.242a1.157 1.157 0 00-.517.62c-.103.242-.138.622-.138 1.07v3.14h-.964zm5.858-6.833V4.485h.93v1.138h-.93zm0 6.833V6.693h.93v5.763h-.93zm2.343 0V6.693h.828v.828c.413-.621.999-.966 1.757-.966.345 0 .62.069.896.172.276.138.483.277.62.484.138.207.242.448.276.724.035.173.035.483.035.966v3.555h-.896v-3.52c0-.414-.035-.69-.104-.897-.069-.207-.207-.345-.379-.483a1.318 1.318 0 00-.655-.173c-.379 0-.723.138-1.034.38-.275.276-.413.759-.413 1.518v3.14h-.93v.035zm9.443-.69a3.8 3.8 0 01-1 .655c-.31.138-.654.173-1.033.173-.586 0-1.069-.138-1.379-.449-.31-.31-.482-.69-.482-1.173 0-.276.069-.552.172-.76.138-.24.276-.413.483-.551.206-.138.413-.242.654-.311.173-.035.448-.104.827-.138.759-.104 1.31-.207 1.655-.345v-.242c0-.414-.104-.69-.276-.828-.241-.207-.586-.345-1.068-.345-.448 0-.759.07-.965.242-.207.172-.345.448-.448.862l-.896-.138c.069-.414.206-.724.413-1 .172-.242.448-.449.827-.587.345-.138.758-.207 1.24-.207.483 0 .862.069 1.138.172.276.104.517.277.655.45.138.172.241.379.276.655.034.172.034.483.034.897v1.311c0 .897.035 1.484.069 1.726.034.241.103.483.241.69h-.965c-.069-.276-.138-.518-.172-.76zm-.069-2.209c-.345.138-.827.276-1.516.38-.38.069-.655.138-.793.207a.843.843 0 00-.379.31c-.069.138-.138.31-.138.449 0 .276.104.483.276.655.172.173.448.277.827.277.345 0 .69-.07.965-.242a1.51 1.51 0 00.62-.69c.104-.207.138-.552.138-.966v-.38z"/><path fill="#3CAB52" d="M55.588 18.737c-.448 0-.759-.104-.965-.276-.173-.173-.276-.518-.276-.966 0-.415.103-.69.276-.863.172-.173.517-.276.965-.276h16.093c.483 0 .793.103.965.276.172.172.241.483.241.863 0 .448-.069.759-.24.966-.173.172-.483.276-.966.276h-2.412v5.728h3.584c.482 0 .793.069.965.242.172.172.241.414.241.793 0 .414-.069.725-.241.932-.172.207-.483.31-.965.31h-3.584v7.454c0 .483-.138.794-.38.966-.275.173-.55.242-.93.242-.379 0-.689-.104-.93-.276-.276-.173-.38-.518-.38-.967v-7.453h-5.788c-.069 1.035-.207 1.967-.448 2.795a8.467 8.467 0 01-.896 2.208c-.379.656-.827 1.277-1.378 1.795a17.434 17.434 0 01-1.861 1.622c-.414.31-.793.448-1.172.414-.379-.035-.655-.207-.861-.587-.242-.38-.345-.69-.242-1 .104-.311.345-.622.69-.898a20.149 20.149 0 001.481-1.208c.414-.38.759-.828 1.069-1.31a7.244 7.244 0 00.689-1.657c.172-.621.276-1.346.345-2.174h-3.482c-.483 0-.793-.104-.965-.31-.172-.208-.241-.518-.241-.932 0-.38.069-.621.241-.794.172-.173.482-.242.965-.242h3.55v-5.727h-2.757v.035zm5.272 5.728h5.72v-5.728h-5.72v5.728zm18.368.138c-.275.276-.585.38-.896.345-.31-.034-.654-.241-1.068-.621a5.724 5.724 0 01-.758-.587c-.31-.276-.655-.517-1-.793-.31-.31-.516-.587-.585-.863-.07-.276.034-.587.31-1 .482-.622 1.103-.622 1.895-.07.276.242.62.483.965.76.38.275.69.517.93.759.31.31.518.62.62.966.139.38 0 .724-.413 1.104zm.517 3.796a50.027 50.027 0 01-.896 3.14c-.31 1-.723 1.967-1.206 2.933-.207.414-.482.69-.861.794-.38.103-.724.069-1.034-.104-.345-.207-.552-.448-.62-.759-.07-.31.034-.76.344-1.277.414-.759.758-1.587 1.034-2.484s.551-1.864.827-2.899c.103-.483.276-.828.517-1 .241-.173.551-.242 1-.139.413.07.723.242.86.518.173.242.208.69.035 1.277zm.38-8.8c-.276.277-.586.38-.862.346-.31-.035-.655-.242-1.068-.587-.276-.242-.586-.518-.93-.794-.346-.276-.621-.517-.828-.69-.345-.276-.551-.552-.586-.828-.034-.276.035-.587.31-.966.242-.31.517-.483.862-.518.344-.034.69.104 1.034.38.275.207.482.38.689.517.207.173.345.31.482.414.138.138.276.242.38.345.103.104.24.208.379.346.31.31.516.62.62.966.103.31-.035.655-.414 1.035l-.069.034zm6.237-.034c-.724 0-1.206.173-1.482.483-.276.345-.413.863-.413 1.587v4.693c0 1.38.62 2.07 1.895 2.07h1.93v4.038c0 .207-.035.345-.138.414-.103.07-.38.035-.827-.103-.483-.138-.827-.173-1.034-.07-.207.104-.345.346-.448.69-.103.415-.103.76.069 1.001.138.277.482.45 1 .518.689.138 1.274.207 1.688.207.414 0 .793-.069 1.068-.276.276-.172.448-.483.552-.863.103-.38.172-.897.172-1.552v-4.039h1.93c.724 0 1.24-.138 1.516-.448.31-.31.448-.828.448-1.622v-4.692c0-.725-.138-1.277-.413-1.587-.276-.346-.758-.484-1.448-.484h-2.274c.069-.103.103-.172.103-.207.035-.034.035-.069.07-.069.24-.517.24-.931.034-1.207h3.721c.448 0 .724-.07.896-.242.138-.172.242-.448.242-.828 0-.38-.07-.656-.207-.863-.138-.207-.448-.276-.896-.276H83.088c-.724 0-1.24.173-1.55.518-.31.345-.483.932-.483 1.725v5.452c0 1.277 0 2.381-.035 3.278a43.436 43.436 0 01-.137 2.45c-.07.69-.173 1.312-.31 1.864a9.814 9.814 0 01-.518 1.518c-.103.242-.206.483-.275.656-.07.207-.104.38-.104.517 0 .173.035.31.138.449a.997.997 0 00.38.38c.31.207.62.276.895.207.276-.035.552-.311.793-.829.276-.62.517-1.276.69-1.966.171-.69.344-1.484.447-2.312.104-.863.173-1.76.207-2.796.034-1 .069-2.139.069-3.347v-5.003c0-.242.034-.38.103-.449a.313.313 0 01.242-.103h4.893c-.034.069-.069.103-.069.172a.264.264 0 00-.069.173 8.955 8.955 0 01-.655 1.138l-1.378.035zm.31 10.939c.172-.449.241-.794.207-1.07-.035-.276-.241-.449-.62-.621-.345-.138-.62-.173-.827-.035-.207.138-.414.38-.552.76-.138.38-.276.724-.379 1a5.617 5.617 0 01-.379.794c-.138.241-.276.483-.448.759s-.345.552-.551.897c-.242.38-.38.725-.345 1 .034.277.138.519.379.726.31.241.586.31.862.207.275-.104.517-.311.723-.622.38-.62.758-1.276 1.103-1.897.31-.622.586-1.243.827-1.898zm5.376-7.523h-5.376v-1c0-.173.035-.242.07-.277a.37.37 0 01.206-.069h4.756c.206 0 .31.104.31.345l.034 1.001zm0 3.002c0 .276-.103.414-.31.414h-4.756c-.206 0-.31-.138-.31-.414v-1.035h5.376v1.035zm2.688 6.66a18.407 18.407 0 00-.482-.897c-.138-.242-.31-.518-.448-.76-.138-.24-.31-.482-.483-.758a36.88 36.88 0 01-.586-.863c-.24-.345-.516-.518-.827-.552a.846.846 0 00-.758.31c-.138.138-.241.276-.276.449-.034.138-.068.31-.034.449 0 .138.069.276.103.414.07.138.138.241.207.38.172.24.345.482.483.69.138.206.275.448.448.69.138.241.275.483.448.759.172.276.31.552.482.897.207.414.414.656.62.759.207.104.483.07.793-.069.38-.173.551-.414.586-.725.069-.38-.035-.759-.276-1.173zm10.063-16.46c0-.483.103-.793.31-.966.207-.172.517-.241 1-.241.448 0 .758.069.965.241.206.173.31.483.31.966v2.657h5.203c.517 0 .93.035 1.276.07.344.034.55.172.723.344.173.173.31.414.345.725.069.31.103.725.103 1.242v6.419c0 .448-.034.862-.069 1.138-.069.31-.172.552-.344.725-.173.173-.414.276-.724.345-.31.07-.724.104-1.275.104h-5.238v4.347c0 .38-.104.656-.276.863-.172.207-.517.345-1 .345-.55 0-.895-.103-1.068-.276-.172-.172-.24-.517-.24-.966v-4.348h-5.101c-.517 0-.93-.034-1.24-.103a1.453 1.453 0 01-.725-.38c-.172-.173-.275-.414-.344-.725-.07-.31-.07-.69-.07-1.138v-6.453c0-.483.035-.863.07-1.173.069-.311.172-.553.344-.725.173-.173.414-.276.724-.345.31-.07.724-.104 1.24-.104h5.101v-2.588zm-4.445 5.176c-.207 0-.345.035-.414.104-.069.069-.069.241-.069.517v4.693c0 .345.035.553.103.622.07.069.207.103.448.103h4.412v-6.039h-4.48zm7.03 0v6.074h4.514c.276 0 .448-.035.517-.138.07-.07.07-.277.07-.622V21.98c0-.276-.035-.448-.139-.517-.103-.07-.31-.104-.62-.104h-4.342zm29.258 11.077c0 .794-.172 1.38-.483 1.76-.31.38-.896.552-1.757.552h-14.336c-.862 0-1.413-.172-1.723-.552-.31-.38-.448-.966-.448-1.76V18.081c0-.793.137-1.38.413-1.725.276-.345.862-.518 1.689-.518h14.405c.861 0 1.447.173 1.757.518.31.345.483.932.483 1.725v14.355zm-15.922-14.32c-.172 0-.31.034-.413.138-.069.069-.138.241-.138.483v12.87c0 .588.241.864.724.864h12.854a.45.45 0 00.414-.242c.103-.172.137-.38.137-.621V18.737a.597.597 0 00-.172-.449c-.103-.103-.31-.138-.62-.138H120.72v-.034zm1.69 3.657c-.483 0-.828-.069-1-.241-.173-.173-.242-.449-.242-.863 0-.448.07-.759.242-.897s.517-.207 1-.207h9.683c.517 0 .861.069 1 .207.137.138.24.449.24.897 0 .414-.068.725-.24.863-.173.138-.518.207-1 .207h-4.032v1.967h3.308c.483 0 .827.069 1 .207.172.138.275.414.275.828s-.103.69-.275.828c-.173.138-.517.207-1 .207h-.448c.276.31.517.587.724.828.207.242.413.553.69.898.206.241.275.517.275.759 0 .241-.104.448-.31.655h.137c.483 0 .828.104 1 .276.172.173.241.484.241.863 0 .414-.069.69-.241.828s-.517.207-1 .207h-10.304c-.482 0-.827-.069-.999-.207-.172-.138-.241-.414-.241-.828s.069-.69.241-.863c.172-.172.517-.276 1-.276h3.583v-3.14h-2.722c-.517 0-.862-.069-1-.207-.137-.138-.24-.414-.24-.828s.068-.69.24-.828c.173-.138.517-.207 1-.207h2.722v-1.967h-3.308v.034zm6.96 5.66c-.275-.311-.413-.622-.413-.863 0-.242.103-.483.31-.69h-1.206v3.14h2.653l-.137-.138c-.07-.07-.07-.104-.138-.138-.138-.173-.242-.276-.31-.38-.07-.103-.138-.172-.207-.276a1.914 1.914 0 01-.207-.276 3.118 3.118 0 00-.345-.38z"/><path fill="#000" d="M144.189 34.368c0 .415-.069.69-.241.863-.173.173-.517.276-1 .276-.379 0-.689-.069-.896-.241-.24-.173-.344-.449-.344-.898v-7.039c-.207.173-.38.38-.586.552-.207.173-.38.345-.586.518-.414.38-.827.552-1.206.586-.38.035-.69-.138-.965-.517-.241-.31-.31-.587-.241-.863s.344-.587.792-.932a21.222 21.222 0 002.55-2.346 17.224 17.224 0 001.827-2.52c.172-.344.069-.517-.31-.517h-3.136c-.483 0-.827-.103-1-.276-.172-.207-.275-.483-.275-.897 0-.38.103-.69.31-.863.207-.207.517-.31.965-.31h2.343c-.069-.07-.172-.173-.31-.345a12.13 12.13 0 00-.724-1l-.723-.933c-.207-.241-.276-.483-.242-.724a1.12 1.12 0 01.448-.621c.276-.207.586-.276.965-.242.345.035.655.173.862.449l.31.414.31.414c.104.138.241.31.38.517.137.207.31.415.516.69.173.242.276.484.241.76-.034.276-.137.483-.344.62h.551c.93 0 1.551.242 1.861.76.31.518.241 1.139-.207 1.898a25.17 25.17 0 01-1.447 2.312c.448.414.93.828 1.344 1.242.448.414.827.794 1.137 1.139.38.414.62.759.655 1.07.034.31-.138.62-.482.966-.62.586-1.31.414-2.103-.483-.172-.207-.344-.38-.517-.587-.172-.172-.344-.38-.516-.552v7.66h.034zm4.204-11.8c-.482 0-.792-.104-.93-.346s-.207-.518-.207-.932c0-.38.069-.69.207-.897.138-.207.448-.345.93-.345h2.689v-3.934c0-.448.104-.759.345-.931.241-.173.517-.242.896-.242.38 0 .69.104.896.276.207.173.345.483.345.897v3.934h3.273c.448 0 .724.104.896.345.173.207.242.518.242.897 0 .38-.07.69-.242.932-.172.207-.448.345-.896.345h-3.273v9.904h3.963c.448 0 .723.103.896.345.172.207.241.517.241.897s-.069.655-.241.897c-.173.242-.448.345-.896.345h-10.616c-.448 0-.758-.103-.896-.276-.137-.172-.206-.518-.206-.966 0-.449.069-.76.206-.966.138-.207.448-.276.896-.276h4.205v-9.904h-2.724zm30.947 11.214c0 .828-.448 1.242-1.378 1.242h-14.75c-.551 0-.965-.034-1.31-.103a1.705 1.705 0 01-.792-.38c-.207-.173-.31-.449-.38-.76-.068-.31-.103-.724-.103-1.241V18.875c0-.518.035-.932.104-1.242.069-.311.206-.587.379-.76.207-.207.448-.31.792-.414.345-.069.759-.103 1.31-.103h14.474c.482 0 .793.103.965.31.172.207.241.518.241.932 0 .449-.069.76-.241.966-.172.173-.483.276-.965.276h-13.785c-.276 0-.482.035-.586.138-.103.104-.138.242-.138.483v12.492c0 .207.035.38.138.483.104.104.276.173.586.173h14.095c.483 0 .862.103 1.068.276.138.103.276.448.276.897zm-2.205-2.416c-.31.276-.62.414-.862.414-.276 0-.586-.207-.93-.62-.38-.38-.965-.932-1.655-1.588a110.13 110.13 0 01-2.343-2.174l-1.103 1.105c-.344.345-.724.69-1.137 1.001-.38.345-.827.69-1.275 1.035-.483.345-1 .725-1.585 1.139-.31.207-.586.31-.93.38-.346.069-.587-.07-.828-.38a1.515 1.515 0 01-.31-.932c0-.345.207-.655.517-.897a33.879 33.879 0 002.515-1.863 23.183 23.183 0 002.344-2.209c-.483-.414-.93-.828-1.344-1.173-.414-.345-.827-.69-1.206-1-.38-.311-.758-.622-1.103-.898s-.724-.552-1.103-.863c-.344-.241-.551-.552-.551-.862 0-.31.103-.621.31-.897.276-.311.586-.484.896-.449.31.034.655.173.965.449l1.137.931c.38.276.724.587 1.103.897.379.311.758.622 1.137.967.38.345.827.69 1.275 1.104.31-.38.586-.725.862-1.07a8.81 8.81 0 00.723-.966c.242-.31.448-.656.655-1 .207-.346.414-.69.62-1.07.207-.38.414-.656.69-.76.275-.138.586-.138 1 .035.31.138.55.38.688.69.138.31.104.656-.137 1.035-.242.414-.448.828-.69 1.208-.24.38-.482.76-.758 1.139-.276.38-.551.759-.861 1.138-.31.38-.655.794-1.034 1.277a91.613 91.613 0 012.378 2.174c.689.621 1.344 1.208 1.93 1.76.379.38.55.69.482 1 0 .242-.172.518-.482.794z"/></g></svg>