<svg viewBox="0 0 500 158"><g fill="none" fill-rule="evenodd"><path fill="#C71D23" d="M78.554 0c43.385 0 78.555 35.17 78.555 78.554 0 43.385-35.17 78.555-78.555 78.555C35.17 157.109 0 121.939 0 78.554 0 35.17 35.17 0 78.554 0zm39.765 34.913s-.002 0-.003.002H64.007c-16.068 0-29.094 13.026-29.094 29.095v54.306a3.88 3.88 0 003.88 3.88h57.219c14.46 0 26.184-11.723 26.184-26.184V73.707a3.88 3.88 0 00-3.88-3.88h-44.61a3.882 3.882 0 00-3.88 3.88l-.003 9.697a3.878 3.878 0 003.878 3.88h27.16a3.88 3.88 0 013.873 3.679l.005.2v1.939c0 6.427-5.21 11.638-11.637 11.638H56.246a3.879 3.879 0 01-3.879-3.88V64.01c-.001-6.33 5.05-11.478 11.34-11.635l.297-.003h54.302a3.886 3.886 0 003.881-3.88l.006-9.697a3.876 3.876 0 00-3.874-3.882z"/><path fill="#000" fill-rule="nonzero" d="M227.11 139.075c11.808 0 21.235-2.303 28.28-6.91 7.045-4.606 10.568-10.57 10.568-17.893 0-11.811-8.817-17.717-26.45-17.717h-10.862c-3.621 0-6.219-.354-7.793-1.063-1.575-.708-2.362-1.89-2.362-3.543 0-1.653.512-3.031 1.535-4.134.394-.472.906-.63 1.535-.472 2.52.708 4.92 1.063 7.203 1.063 8.108 0 14.7-1.949 19.778-5.847 5.077-3.897 7.615-9.665 7.615-17.303 0-2.835-.511-5.354-1.534-7.559-.08-.157-.06-.335.059-.531a.58.58 0 01.53-.296h2.717c1.968 0 3.62-.669 4.959-2.008 1.338-1.338 2.007-2.992 2.007-4.96v-1.654c0-1.89-.669-3.523-2.007-4.901-1.338-1.378-2.991-2.067-4.96-2.067h-17.357a7.32 7.32 0 01-1.77-.237c-3.07-.944-6.416-1.417-10.037-1.417-5.117 0-9.8.886-14.051 2.658-4.25 1.771-7.773 4.606-10.568 8.504-2.794 3.897-4.192 8.523-4.192 13.878 0 3.7.866 7.086 2.598 10.157 1.732 3.07 3.897 5.551 6.494 7.441.158.079.236.197.236.354 0 .158-.078.315-.236.473-2.204 1.575-3.975 3.484-5.313 5.728-1.338 2.244-2.008 4.547-2.008 6.91 0 5.039 2.008 8.937 6.022 11.693.158.078.237.216.237.413a.734.734 0 01-.237.531c-3.148 1.575-5.53 3.504-7.143 5.788-1.614 2.283-2.42 4.803-2.42 7.559 0 3.937 1.337 7.244 4.014 9.921 2.676 2.677 6.12 4.587 10.331 5.729 4.212 1.141 9.073 1.712 14.583 1.712zm1.654-63.661c-2.598 0-4.703-.926-6.317-2.776-1.614-1.85-2.42-4.508-2.42-7.972 0-3.386.806-6.004 2.42-7.855 1.614-1.85 3.72-2.775 6.317-2.775 2.598 0 4.703.905 6.317 2.716 1.614 1.811 2.42 4.449 2.42 7.914 0 3.464-.806 6.122-2.42 7.972-1.614 1.85-3.72 2.776-6.317 2.776zm1.653 50.197c-4.487 0-8.049-.61-10.686-1.831-2.637-1.22-3.955-3.051-3.955-5.492 0-1.969.905-3.82 2.715-5.551.236-.237.59-.355 1.063-.355h.354c1.968.394 4.96.59 8.974.59h6.494c3.464 0 6.002.355 7.616 1.064 1.614.708 2.42 2.008 2.42 3.897 0 2.205-1.397 4.036-4.191 5.493-2.795 1.456-6.396 2.185-10.804 2.185zm57.149-94.253c3.542 0 6.454-1.023 8.737-3.07 2.283-2.048 3.424-4.686 3.424-7.914 0-3.228-1.14-5.886-3.424-7.972-2.283-2.087-5.195-3.13-8.737-3.13-3.621 0-6.593 1.043-8.915 3.13-2.322 2.086-3.483 4.744-3.483 7.972 0 3.228 1.16 5.866 3.483 7.913 2.322 2.048 5.294 3.071 8.915 3.071zm3.66 78.426c1.89 0 3.523-.69 4.9-2.067 1.378-1.378 2.067-3.012 2.067-4.902V47.894c0-1.89-.69-3.524-2.067-4.902-1.377-1.378-3.01-2.067-4.9-2.067h-7.439c-1.968 0-3.62.69-4.959 2.067-1.338 1.378-2.007 3.012-2.007 4.902v54.921c0 1.89.669 3.524 2.007 4.902 1.338 1.378 2.991 2.067 4.96 2.067h7.438zm51.363 1.653a47.52 47.52 0 008.856-.826c1.889-.315 3.345-1.339 4.369-3.071.708-1.181 1.062-2.402 1.062-3.662 0-.55-.04-1.141-.118-1.771l-.472-1.89c-.394-1.654-1.378-2.973-2.952-3.957s-3.346-1.516-5.313-1.594c-5.432-.237-8.148-3.78-8.148-10.63V58.642c0-.551.276-.827.827-.827h8.383c1.89 0 3.523-.689 4.9-2.067 1.378-1.378 2.067-3.012 2.067-4.901v-2.953c0-1.89-.69-3.524-2.067-4.902-1.377-1.378-3.01-2.067-4.9-2.067H340.7c-.551 0-.827-.275-.827-.826V29.823c0-1.969-.688-3.622-2.066-4.96-1.378-1.34-3.011-2.009-4.9-2.009h-4.015c-1.968 0-3.7.65-5.195 1.95-1.496 1.298-2.401 2.932-2.716 4.9L319.682 40.1c-.078.55-.433.866-1.062.944l-2.716.237c-1.968.157-3.621.964-4.96 2.42-1.337 1.458-2.007 3.17-2.007 5.139v2.008c0 1.89.69 3.523 2.067 4.901 1.377 1.378 3.01 2.067 4.9 2.067h1.535c.55 0 .826.276.826.827v25.63c0 8.583 1.968 15.256 5.904 20.02 3.936 4.763 10.076 7.145 18.42 7.145zm57.74 0c6.297 0 12.515-1.456 18.655-4.37 1.732-.787 2.834-2.165 3.306-4.134a5.35 5.35 0 00.355-1.89c0-1.18-.355-2.362-1.063-3.543l-.354-.708c-.945-1.654-2.323-2.756-4.133-3.307a9.832 9.832 0 00-2.598-.355 9.27 9.27 0 00-2.952.473 24.651 24.651 0 01-8.265 1.417c-9.289 0-14.917-4.134-16.885-12.402a.652.652 0 01.118-.65.727.727 0 01.59-.295h32.472c2.046 0 3.857-.65 5.431-1.948 1.574-1.3 2.4-2.933 2.48-4.902V72.58c0-9.921-2.52-17.953-7.557-24.095-5.038-6.141-12.359-9.212-21.962-9.212-4.172 0-8.207.846-12.103 2.54a33.383 33.383 0 00-10.39 7.086c-3.031 3.031-5.472 6.85-7.322 11.457-1.85 4.606-2.774 9.626-2.774 15.059 0 11.102 3.286 19.882 9.859 26.338 6.573 6.457 14.937 9.685 25.091 9.685zm8.028-43.7H386.75c-.55 0-.826-.197-.826-.591 0-3.228 1.535-6.103 4.605-8.622 2.204-1.89 4.841-2.835 7.91-2.835 3.543 0 6.2 1.004 7.971 3.012s2.735 4.705 2.893 8.09v.119c0 .55-.315.826-.945.826zm63.997 43.7c6.298 0 12.517-1.456 18.656-4.37 1.732-.787 2.834-2.165 3.307-4.134a5.35 5.35 0 00.354-1.89c0-1.18-.354-2.362-1.063-3.543l-.354-.708c-.945-1.654-2.322-2.756-4.133-3.307a9.832 9.832 0 00-2.597-.355 9.27 9.27 0 00-2.952.473 24.651 24.651 0 01-8.266 1.417c-9.288 0-14.917-4.134-16.885-12.402a.652.652 0 01.119-.65.727.727 0 01.59-.295h32.47c2.047 0 3.858-.65 5.432-1.948 1.575-1.3 2.401-2.933 2.48-4.902V72.58c0-9.921-2.519-17.953-7.557-24.095-5.038-6.141-12.359-9.212-21.962-9.212-4.172 0-8.206.846-12.103 2.54a33.383 33.383 0 00-10.39 7.086c-3.031 3.031-5.471 6.85-7.321 11.457-1.85 4.606-2.775 9.626-2.775 15.059 0 11.102 3.286 19.882 9.86 26.338 6.572 6.457 14.936 9.685 25.09 9.685zm8.03-43.7h-21.608c-.551 0-.827-.197-.827-.591 0-3.228 1.535-6.103 4.605-8.622 2.204-1.89 4.841-2.835 7.911-2.835 3.543 0 6.2 1.004 7.97 3.012 1.772 2.008 2.736 4.705 2.893 8.09v.119c0 .55-.315.826-.944.826z"/></g></svg>