<svg viewBox="0 0 241 57"><g fill="none" fill-rule="evenodd"><path fill="#3dab53" d="M28.049 38.788c-5.699.04-10.343-3.678-10.656-10.608-.312-6.466 5.387-10.802 10.812-10.919 6.245-.154 9.992 6.97 9.992 6.97l16.12-5.924S47.682 1.155 29.727 1.155c-16.783 0-28.376 11.615-28.376 27.373 0 14.016 10.93 27.993 27.986 27.374 18.735-.697 25.136-17.152 25.136-17.152l-16.55-5.46c.04-.077-3.356 5.498-9.874 5.498"/><path stroke="#006838" stroke-width="1.944" d="M28.049 38.788c-5.699.04-10.343-3.678-10.656-10.608-.312-6.466 5.387-10.802 10.812-10.919 6.245-.154 9.992 6.97 9.992 6.97l16.12-5.924S47.682 1.155 29.727 1.155c-16.783 0-28.376 11.615-28.376 27.373 0 14.016 10.93 27.993 27.986 27.374 18.735-.697 25.136-17.152 25.136-17.152l-16.55-5.46c.04-.077-3.356 5.498-9.874 5.498"/><path fill="#111" fill-rule="nonzero" d="M81.322 37.977c5.38 0 7.963-4.57 7.963-9.73 0-5.12-2.669-9.732-7.963-9.732-5.294 0-7.962 4.612-7.962 9.731 0 5.162 2.584 9.73 7.962 9.73zm0 5.838c-8.597 0-14.57-6.811-14.57-15.569 0-8.8 5.93-15.57 14.57-15.57 8.513 0 14.57 6.982 14.57 15.57 0 8.758-5.887 15.57-14.57 15.57zm26.725-31.138c2.372 0 8.301.888 8.301 4.23 0 1.65-1.1 3.131-2.837 3.131s-3.092-1.269-5.633-1.269c-1.822 0-3.473.973-3.473 2.75 0 4.358 14.146 1.566 14.146 12.481 0 6.05-4.998 9.815-10.843 9.815-3.26 0-10.292-.761-10.292-4.738 0-1.65 1.102-3.004 2.838-3.004 1.99 0 4.362 1.65 7.115 1.65 2.796 0 4.32-1.565 4.32-3.638 0-4.993-14.145-1.989-14.145-11.804 0-5.923 4.87-9.604 10.503-9.604zm12.028 15.57c0-8.8 5.93-15.57 14.57-15.57 3.091 0 9.106 1.015 9.106 4.738 0 1.523-1.06 2.835-2.626 2.835-1.737 0-2.923-1.48-6.48-1.48-5.252 0-7.963 4.442-7.963 9.603 0 5.035 2.753 9.35 7.963 9.35 3.557 0 4.997-1.777 6.734-1.777 1.906 0 2.795 1.904 2.795 2.877 0 4.062-6.395 4.992-9.53 4.992-8.597 0-14.569-6.811-14.569-15.569zm27.064 12.015V16.23c0-2.116 1.355-3.3 3.176-3.3 1.821 0 3.177 1.184 3.177 3.3v8.97h13.299v-8.97c0-2.115 1.355-3.3 3.176-3.3 1.821 0 3.177 1.185 3.177 3.3v24.032c0 2.115-1.356 3.3-3.177 3.3s-3.176-1.185-3.176-3.3v-9.224h-13.3v9.224c0 2.115-1.355 3.3-3.176 3.3-1.82 0-3.176-1.185-3.176-3.3zm29.816 0V16.23c0-2.116 1.356-3.3 3.177-3.3 1.82 0 3.176 1.184 3.176 3.3v24.03c0 2.116-1.355 3.3-3.176 3.3-1.821 0-3.177-1.184-3.177-3.3zm9.91 0V16.23c0-2.116 1.356-3.3 3.177-3.3.805 0 2.118.634 2.669 1.396l13.425 17.896h.085V16.231c0-2.116 1.355-3.3 3.177-3.3 1.82 0 3.176 1.184 3.176 3.3v24.03c0 2.116-1.355 3.3-3.176 3.3-.805 0-2.076-.634-2.669-1.396l-13.425-17.684h-.085v15.78c0 2.116-1.355 3.3-3.177 3.3-1.82 0-3.176-1.184-3.176-3.3zm27.742-1.058l8.513-23.016c.72-1.946 2.372-3.511 4.532-3.511 2.244 0 3.812 1.48 4.532 3.511l8.3 23.016c.255.677.34 1.27.34 1.565 0 1.65-1.356 2.793-2.923 2.793-1.779 0-2.668-.931-3.092-2.2l-1.27-3.977h-11.774l-1.27 3.934c-.424 1.312-1.314 2.243-3.05 2.243-1.694 0-3.134-1.27-3.134-2.962 0-.677.211-1.185.296-1.396zm13.002-19.927l-4.023 12.27h8.047l-3.939-12.27z"/></g></svg>