<svg fill="none" viewBox="0 0 199 53"><path fill="#B421CC" d="M73.053 24.247v2.223H61.895v-2.223h11.158zm-10.734-8.864V36h-2.733V15.383h2.733zm13.113 0V36h-2.72V15.383h2.72zm10.818 20.9c-1.067 0-2.034-.18-2.903-.538a6.58 6.58 0 01-2.223-1.543 6.866 6.866 0 01-1.416-2.35c-.33-.907-.496-1.898-.496-2.975v-.594c0-1.246.184-2.356.553-3.328.368-.982.868-1.812 1.5-2.492a6.43 6.43 0 012.153-1.544 6.182 6.182 0 012.492-.524c1.095 0 2.04.19 2.832.567a5.162 5.162 0 011.968 1.586c.51.67.888 1.463 1.133 2.379.246.906.368 1.897.368 2.973v1.176H80.77v-2.139h8.822v-.198a6.537 6.537 0 00-.425-1.982 3.564 3.564 0 00-1.133-1.586c-.519-.415-1.227-.623-2.124-.623a3.56 3.56 0 00-2.931 1.487c-.359.49-.637 1.09-.835 1.798-.199.708-.298 1.525-.298 2.45v.594c0 .727.1 1.412.298 2.054.207.632.505 1.19.892 1.67.396.482.873.86 1.43 1.133.566.274 1.208.411 1.926.411.925 0 1.708-.189 2.35-.566a5.82 5.82 0 001.685-1.516l1.586 1.26c-.33.501-.75.978-1.26 1.43-.51.454-1.138.822-1.883 1.105-.737.284-1.61.425-2.62.425zm11.64-13.197V36h-2.62V20.679h2.549l.07 2.407zm4.786-2.492l-.014 2.435a3.806 3.806 0 00-.623-.085 6.656 6.656 0 00-.652-.028c-.604 0-1.137.094-1.6.283a3.315 3.315 0 00-1.175.793c-.321.34-.576.746-.765 1.218-.18.462-.297.972-.354 1.53l-.736.424c0-.925.09-1.794.269-2.605.189-.812.477-1.53.864-2.153a4.23 4.23 0 011.472-1.472c.605-.36 1.322-.539 2.153-.539.188 0 .406.024.651.071.245.038.415.08.51.128zm9.544.085v2.01h-8.284v-2.01h8.284zm-5.48-3.724h2.619v15.25c0 .52.081.911.241 1.175.161.265.368.44.623.524.255.085.529.128.821.128.218 0 .444-.02.68-.057.246-.047.43-.085.552-.113l.015 2.138a6.149 6.149 0 01-.822.184c-.33.066-.731.1-1.203.1a4.08 4.08 0 01-1.77-.383c-.538-.255-.968-.68-1.289-1.275-.311-.604-.467-1.416-.467-2.435V16.955zm19.966 16.893V36h-11.144v-2.152h11.144zm-.411-11.314L116.156 36h-1.6v-1.926l10.068-13.395h1.671v1.855zm-1.161-1.855v2.166h-10.465V20.68h10.465zm12.291 5.678H132.2l-.029-2.195h4.744c.784 0 1.468-.132 2.053-.396.586-.265 1.039-.642 1.36-1.133.33-.5.495-1.095.495-1.784 0-.756-.146-1.37-.439-1.841-.283-.482-.722-.83-1.317-1.048-.585-.227-1.331-.34-2.237-.34h-4.021V36h-2.733V15.383h6.754c1.057 0 2.001.108 2.832.326.831.207 1.534.538 2.11.99a4.221 4.221 0 011.331 1.7c.302.69.453 1.515.453 2.478a4.24 4.24 0 01-.651 2.308c-.434.68-1.039 1.237-1.813 1.671-.764.434-1.661.713-2.69.835l-.977.666zM137.297 36h-6.173l1.543-2.223h4.63c.869 0 1.605-.151 2.209-.453.614-.302 1.081-.727 1.402-1.275.321-.557.482-1.213.482-1.968 0-.765-.137-1.425-.411-1.982a2.837 2.837 0 00-1.289-1.289c-.585-.302-1.34-.453-2.265-.453h-3.894l.028-2.195h5.324l.581.793c.991.085 1.831.368 2.52.85a4.613 4.613 0 011.572 1.812c.368.736.552 1.548.552 2.436 0 1.284-.283 2.37-.849 3.257-.557.877-1.345 1.548-2.365 2.01-1.019.453-2.218.68-3.597.68zm16.808.283c-1.066 0-2.034-.18-2.902-.538a6.593 6.593 0 01-2.224-1.543 6.885 6.885 0 01-1.416-2.35c-.33-.907-.495-1.898-.495-2.975v-.594c0-1.246.184-2.356.552-3.328.368-.982.869-1.812 1.501-2.492a6.438 6.438 0 012.152-1.544 6.188 6.188 0 012.493-.524c1.095 0 2.039.19 2.832.567a5.167 5.167 0 011.968 1.586c.51.67.887 1.463 1.133 2.379.245.906.368 1.897.368 2.973v1.176h-11.442v-2.139h8.822v-.198a6.496 6.496 0 00-.425-1.982 3.564 3.564 0 00-1.132-1.586c-.52-.415-1.228-.623-2.124-.623a3.564 3.564 0 00-2.932 1.487c-.358.49-.637 1.09-.835 1.798-.198.708-.297 1.525-.297 2.45v.594c0 .727.099 1.412.297 2.054.208.632.505 1.19.892 1.67.397.482.873.86 1.43 1.133.567.274 1.209.411 1.926.411.925 0 1.709-.189 2.351-.566a5.826 5.826 0 001.685-1.516l1.586 1.26a7.294 7.294 0 01-1.261 1.43c-.509.454-1.137.822-1.883 1.105-.736.284-1.609.425-2.62.425zm18.055-2.903v-7.887c0-.604-.123-1.128-.368-1.572a2.41 2.41 0 00-1.077-1.047c-.481-.246-1.076-.369-1.784-.369-.661 0-1.241.114-1.742.34-.49.227-.877.524-1.161.892a1.96 1.96 0 00-.41 1.19h-2.62c0-.548.142-1.09.425-1.629a4.758 4.758 0 011.218-1.458c.538-.444 1.18-.793 1.925-1.048.756-.264 1.596-.397 2.521-.397 1.114 0 2.096.19 2.945.567a4.41 4.41 0 012.011 1.713c.491.755.736 1.704.736 2.846v7.137c0 .51.043 1.053.128 1.629a6.36 6.36 0 00.41 1.486V36h-2.733c-.132-.302-.236-.703-.311-1.204a9.64 9.64 0 01-.113-1.416zm.453-6.67l.028 1.842h-2.648c-.746 0-1.411.061-1.996.184-.586.113-1.077.288-1.473.524a2.48 2.48 0 00-.906.892c-.208.35-.312.76-.312 1.232 0 .481.109.92.326 1.317.217.396.543.712.977.948.444.227.986.34 1.628.34.803 0 1.511-.17 2.124-.51.614-.34 1.1-.755 1.459-1.246.368-.49.566-.967.595-1.43l1.118 1.26c-.066.397-.245.836-.538 1.317a6.343 6.343 0 01-2.903 2.478c-.661.284-1.406.425-2.237.425-1.038 0-1.949-.203-2.733-.609-.774-.406-1.378-.948-1.812-1.628a4.31 4.31 0 01-.638-2.308c0-.822.161-1.544.482-2.167A4.177 4.177 0 01164.542 28c.604-.424 1.331-.745 2.18-.962.85-.217 1.799-.326 2.846-.326h3.045zm12.701-6.031v2.01h-8.283v-2.01h8.283zm-5.48-3.724h2.62v15.25c0 .52.08.911.241 1.175.16.265.368.44.623.524.255.085.529.128.821.128.217 0 .444-.02.68-.057.245-.047.429-.085.552-.113l.014 2.138a6.093 6.093 0 01-.821.184c-.33.066-.732.1-1.204.1a4.08 4.08 0 01-1.77-.383c-.538-.255-.967-.68-1.288-1.275-.312-.604-.468-1.416-.468-2.435V16.955z"/><path fill="#B421CC" fill-rule="evenodd" d="M24.001 0C10.748 0 0 10.745 0 24.001c0 9.825 5.91 18.27 14.369 21.981-.068-1.674-.012-3.689.415-5.512.462-1.948 2.322-12.97 2.322-12.97v-3.905c0-3.556 2.328-1.776 4.894-1.776L25.5 23h17s-9.557-7.5-16-7.5h-8c0 2.094-5 2.5-5 2.5l-2-2.5-2.5-1c0-6.816 4.52-6.431 15.922-6.431C34.086 8.069 48 14.5 42.5 23h-17c-2.588 0 2.836 8.09 2 6.5 0 0 .5 3.5-5.5 7.5-.508 1.85-3.889 8.575-4.8 10.015 2.159.638 4.44.985 6.801.985C37.255 48 48 37.255 48 24.001 48 10.745 37.255 0 24.001 0z" clip-rule="evenodd"/></svg>